<?xml version="1.0" standalone="no"?>
<!DOCTYPE svg PUBLIC "-//W3C//DTD SVG 20010904//EN"
 "http://www.w3.org/TR/2001/REC-SVG-20010904/DTD/svg10.dtd">
<svg version="1.0" xmlns="http://www.w3.org/2000/svg"
 width="4000.000000pt" height="1048.000000pt" viewBox="0 0 4000.000000 1048.000000"
 preserveAspectRatio="xMidYMid meet">

<g transform="translate(0.000000,1048.000000) scale(0.100000,-0.100000)"
fill="#000000" stroke="none">
<path d="M9080 7326 c-146 -84 -596 -343 -1000 -576 -404 -233 -755 -435 -780
-448 -88 -49 -80 11 -80 -584 0 -290 2 -528 5 -528 3 0 110 60 238 134 128 73
324 186 437 251 113 65 261 150 330 190 69 40 276 159 460 265 184 106 404
233 488 282 85 48 160 88 167 88 7 0 98 -49 202 -109 103 -59 292 -168 418
-241 127 -73 397 -228 600 -345 204 -117 487 -280 630 -363 l260 -150 3 531
c2 417 -1 534 -10 542 -7 7 -123 75 -258 152 -135 77 -454 261 -710 408 -256
147 -602 346 -770 443 -168 96 -318 182 -335 192 l-30 18 -265 -152z"/>
<path d="M28915 6859 c-380 -33 -695 -291 -795 -650 -62 -225 -40 -489 56
-682 118 -237 320 -404 579 -478 102 -30 321 -37 439 -15 345 65 615 317 709
661 19 68 22 105 21 250 -1 192 -16 270 -79 404 -134 282 -420 484 -719 507
-39 3 -82 6 -96 8 -14 1 -65 -1 -115 -5z m231 -474 c109 -32 204 -125 245
-241 27 -75 37 -239 20 -325 -27 -133 -95 -232 -198 -286 -158 -84 -355 -64
-479 49 -95 87 -136 196 -135 360 1 237 94 387 274 443 58 19 212 18 273 0z"/>
<path d="M23660 6836 c-369 -78 -622 -348 -681 -727 -17 -112 -6 -345 21 -444
70 -258 224 -446 450 -554 157 -75 333 -103 525 -83 137 15 221 39 340 100 73
37 108 64 185 142 78 77 105 112 142 185 26 50 56 123 67 163 l20 72 -268 0
-268 0 -37 -54 c-126 -184 -410 -207 -560 -46 -84 90 -116 186 -116 350 0 58
6 128 14 155 32 120 107 219 201 266 44 21 64 24 160 24 91 0 118 -4 156 -21
59 -28 123 -85 156 -141 l25 -43 262 0 c145 0 265 3 268 6 11 10 -31 139 -73
221 -101 201 -289 352 -514 414 -102 28 -373 36 -475 15z"/>
<path d="M12290 5936 l0 -906 358 0 c384 0 525 9 644 40 282 74 508 279 599
543 37 109 49 188 49 332 0 160 -25 280 -84 403 -122 251 -315 398 -611 464
-80 18 -137 21 -522 25 l-433 5 0 -906z m801 454 c162 -31 283 -141 324 -295
19 -72 21 -231 4 -300 -28 -115 -94 -204 -189 -254 -93 -50 -148 -61 -302 -61
l-138 0 0 460 0 460 124 0 c68 0 147 -5 177 -10z"/>
<path d="M14040 6835 c0 -2 70 -141 156 -307 86 -167 199 -386 251 -488 53
-102 123 -237 157 -300 l61 -115 5 -295 5 -295 248 -3 247 -2 0 286 0 287 49
91 c26 50 93 179 149 286 55 107 174 340 266 517 91 177 166 327 166 333 0 16
-545 14 -557 -2 -6 -7 -76 -159 -157 -338 -81 -179 -151 -329 -155 -333 -5 -5
-34 49 -66 120 -55 120 -101 221 -209 458 l-45 100 -286 3 c-157 1 -285 0
-285 -3z"/>
<path d="M15965 6828 c-3 -7 -4 -413 -3 -903 l3 -890 247 -3 248 -2 2 502 3
503 334 -502 335 -503 248 0 248 0 0 905 0 905 -247 -2 -248 -3 -5 -505 -5
-504 -330 504 -330 505 -248 3 c-193 2 -249 0 -252 -10z"/>
<path d="M18450 6820 c-6 -11 -80 -210 -164 -443 -85 -232 -227 -622 -316
-867 -90 -245 -165 -453 -168 -463 -4 -16 11 -17 258 -15 l263 3 50 148 49
147 318 0 318 0 49 -147 50 -148 261 -3 c149 -1 262 2 262 7 0 8 -124 357
-200 561 -21 58 -122 335 -224 615 -101 281 -194 536 -206 568 l-21 57 -284 0
c-274 0 -285 -1 -295 -20z m388 -818 c50 -152 92 -281 92 -285 0 -4 -86 -7
-191 -7 -149 0 -190 3 -187 13 3 6 45 135 93 285 49 149 91 272 94 272 4 0 48
-125 99 -278z"/>
<path d="M19850 5935 l0 -905 250 0 250 0 0 493 c0 281 4 486 9 477 5 -8 77
-215 161 -460 84 -245 158 -460 166 -478 l13 -32 207 2 207 3 166 486 166 487
5 -487 5 -486 248 -3 247 -2 0 905 0 905 -299 0 -300 0 -19 -52 c-11 -29 -84
-222 -162 -428 -78 -206 -166 -442 -197 -525 -31 -82 -59 -153 -62 -157 -4 -4
-23 36 -43 90 -20 53 -84 221 -143 372 -59 151 -136 352 -172 445 -36 94 -74
189 -84 213 l-18 42 -301 0 -300 0 0 -905z"/>
<path d="M22245 6828 c-3 -7 -4 -413 -3 -903 l3 -890 248 -3 247 -2 0 905 0
905 -245 0 c-187 0 -247 -3 -250 -12z"/>
<path d="M25455 6828 c-3 -7 -4 -413 -3 -903 l3 -890 250 0 250 0 3 353 2 352
265 0 265 0 0 190 0 190 -265 0 -265 0 0 160 0 160 360 0 360 0 -2 198 -3 197
-608 3 c-481 2 -609 0 -612 -10z"/>
<path d="M26890 5935 l0 -905 530 0 530 0 0 195 0 195 -280 0 -280 0 0 710 0
710 -250 0 -250 0 0 -905z"/>
<path d="M30090 6824 c0 -14 119 -509 341 -1421 l91 -373 303 0 c167 0 306 4
309 9 3 4 33 127 66 272 145 632 169 736 175 772 4 20 10 37 14 37 3 0 27 -96
53 -212 87 -394 189 -843 194 -861 5 -16 26 -17 312 -15 l306 3 9 35 c38 145
427 1745 427 1756 0 12 -40 14 -267 12 l-268 -3 -27 -155 c-25 -144 -146 -846
-170 -988 -5 -35 -12 -61 -14 -59 -3 3 -92 391 -225 982 -22 99 -44 190 -49
203 l-10 22 -269 0 c-248 0 -270 -1 -275 -17 -3 -10 -23 -97 -45 -193 -121
-531 -232 -1004 -235 -1007 -2 -2 -6 11 -9 29 -86 514 -199 1166 -202 1176 -3
9 -66 12 -270 12 -233 0 -265 -2 -265 -16z"/>
<path d="M9125 5849 c-116 -67 -282 -163 -370 -213 -203 -117 -654 -377 -895
-516 -102 -59 -285 -164 -407 -235 l-223 -128 0 -471 0 -472 53 -28 53 -29 90
50 c49 28 175 100 279 160 105 61 298 172 430 248 132 76 283 163 335 193 52
30 230 132 395 227 165 95 340 196 389 224 49 28 90 51 92 51 2 0 56 -31 121
-69 65 -37 242 -139 393 -226 510 -294 714 -411 1025 -590 171 -98 346 -199
389 -223 l80 -45 53 29 53 28 0 472 0 472 -222 128 c-123 70 -365 209 -538
309 -173 100 -421 243 -550 317 -129 74 -343 197 -475 273 -132 76 -258 149
-280 162 -22 12 -45 23 -50 23 -6 0 -105 -55 -220 -121z"/>
<path d="M13245 4416 c-73 -23 -121 -54 -173 -110 -76 -84 -96 -144 -97 -286
0 -108 2 -119 31 -181 44 -93 93 -142 182 -187 73 -35 80 -37 177 -37 93 0
105 2 167 33 83 41 143 100 179 177 28 58 49 142 49 191 l0 24 -215 0 -216 0
4 -27 4 -28 171 -3 171 -2 -6 -33 c-13 -68 -45 -137 -83 -176 -61 -63 -111
-84 -212 -89 -76 -4 -92 -1 -140 20 -30 14 -70 40 -91 57 -76 67 -117 204 -97
327 28 173 149 278 320 276 107 0 201 -48 250 -127 19 -30 27 -35 61 -35 21 0
39 2 39 5 0 23 -48 90 -93 132 -71 64 -154 93 -265 92 -42 0 -95 -6 -117 -13z"/>
<path d="M14118 4423 l-208 -3 0 -400 0 -400 210 0 210 0 0 30 0 30 -170 0
-171 0 3 158 3 157 150 2 150 1 0 29 0 28 -152 3 -153 3 0 149 0 150 170 0
170 0 0 35 c0 19 -1 34 -2 33 -2 -2 -96 -4 -210 -5z"/>
<path d="M15521 4410 c-182 -67 -284 -251 -252 -455 48 -314 402 -451 654
-252 33 25 97 117 97 140 0 4 -18 7 -39 7 -35 0 -43 -5 -68 -42 -36 -54 -102
-104 -156 -119 -23 -7 -72 -12 -109 -11 -122 1 -224 68 -277 181 -22 49 -26
69 -26 156 0 124 19 185 80 253 130 144 381 131 485 -26 28 -43 33 -46 68 -43
20 1 39 4 40 6 9 8 -53 97 -90 130 -70 64 -138 89 -253 92 -81 3 -110 0 -154
-17z"/>
<path d="M14500 4020 l0 -400 35 0 35 0 0 335 c0 187 4 335 9 335 5 0 107
-150 227 -334 l219 -335 43 0 42 -1 0 400 0 400 -40 0 -40 0 -2 -337 -3 -338
-86 130 c-47 72 -147 223 -223 338 l-137 207 -39 0 -40 0 0 -400z"/>
<path d="M16143 4407 c2 -7 59 -116 126 -242 l121 -229 0 -158 0 -158 40 0 40
0 0 161 0 160 94 177 c51 97 108 205 125 240 l31 62 -40 0 -40 0 -102 -205
c-57 -113 -105 -205 -108 -205 -3 0 -51 92 -108 205 l-102 205 -41 0 c-29 0
-40 -4 -36 -13z"/>
<path d="M12472 4383 c-16 -46 -270 -726 -277 -745 -6 -15 -1 -18 33 -18 l39
0 36 93 35 92 188 0 189 0 34 -92 34 -93 38 0 c22 0 39 2 39 5 0 3 -20 58 -44
123 -25 64 -77 205 -116 312 -39 107 -84 229 -99 270 l-28 75 -45 3 c-42 3
-46 1 -56 -25z m113 -218 c25 -71 59 -164 75 -205 15 -41 26 -78 24 -82 -6 -9
-308 -11 -316 -3 -4 5 36 121 129 368 14 38 29 65 33 60 5 -4 29 -66 55 -138z"/>
</g>
</svg>
